<svg xmlns="http://www.w3.org/2000/svg" width="1200" height="800" viewBox="0 0 1200 800">
  <defs>

  <radialGradient id="bg" cx="0.5" cy="0.38" r="0.9">
    <stop offset="0" stop-color="#f5f3ff" />
    <stop offset="0.55" stop-color="#ffffff" />
    <stop offset="1" stop-color="#ffffff" />
  </radialGradient>


  <filter id="shadow" x="-20%" y="-20%" width="140%" height="140%">
    <feDropShadow dx="0" dy="18" stdDeviation="22" flood-color="#000000" flood-opacity="0.22" />
  </filter>


  <filter id="printShadow" x="-30%" y="-30%" width="160%" height="160%">
    <feDropShadow dx="0" dy="10" stdDeviation="12" flood-color="#000000" flood-opacity="0.22" />
  </filter>

<linearGradient id="fabric" x1="0" y1="0" x2="0" y2="1">
    <stop offset="0" stop-color="#ffffff" />
    <stop offset="1" stop-color="#e5e7eb" />
  </linearGradient>
  </defs>

  <rect width="1200" height="800" fill="url(#bg)" />
  <ellipse cx="600" cy="716" rx="280" ry="64" fill="rgba(0,0,0,0.12)" />

  <g filter="url(#shadow)">
<path
      d="M410 292
         Q 412 248 452 248
         H 748
         Q 788 248 790 292
         L 836 702
         Q 842 752 792 752
         H 408
         Q 358 752 364 702
         Z"
      fill="rgba(255,255,255,0.64)"
      stroke="rgba(0,0,0,0.18)"
      stroke-width="3"
      stroke-linejoin="round"
    />
    <path
      d="M498 292 V 268
         Q 498 212 554 212
         H 646
         Q 702 212 702 268
         V 292"
      fill="none"
      stroke="rgba(0,0,0,0.24)"
      stroke-width="16"
      stroke-linecap="round"
      stroke-linejoin="round"
    />
    <path
      d="M536 292 V 272
         Q 536 244 564 244
         H 636
         Q 664 244 664 272
         V 292"
      fill="none"
      stroke="rgba(0,0,0,0.24)"
      stroke-width="8"
      stroke-linecap="round"
      stroke-linejoin="round"
      opacity="0.78"
    />
    <path
      d="M430 338 Q 598 376 770 332"
      fill="none"
      stroke="rgba(255,255,255,0.42)"
      stroke-width="18"
      stroke-linecap="round"
      opacity="0.55"
    />
    <path
      d="M412 304 H 788"
      fill="none"
      stroke="rgba(0,0,0,0.18)"
      stroke-width="2"
      opacity="0.5"
    />
    <g>
      <g filter="url(#printShadow)">
      <rect
      x="420"
      y="351"
      width="360"
      height="334"
      rx="36.74"
      fill="rgba(255,255,255,0.72)"
      stroke="rgba(0,0,0,0.16)"
      stroke-width="2.6"
    />
    <rect
      x="430"
      y="361"
      width="340"
      height="314"
      rx="28.740000000000002"
      fill="none"
      stroke="#ec4899"
      stroke-width="3"
      opacity="0.58"
    />
    </g>
<text
      x="600"
      y="440"
      text-anchor="middle"
      font-family="Teko, Impact, Arial Black, sans-serif"
      font-size="48"
      font-weight="800"
      fill="#111827"
      letter-spacing="0.02em"
    >
      <tspan x="600" dy="0">ANOREXIA</tspan>
    </text>
<g transform="translate(600 520)" filter="url(#printShadow)">
      <rect
      x="-68"
      y="-68"
      width="136"
      height="136"
      rx="24.48"
      fill="rgba(17,24,39,0.05)"
      stroke="#ec4899"
      stroke-width="3"
      opacity="0.55"
    />
      <g
      fill="none"
      stroke="#ec4899"
      stroke-width="6"
      stroke-linecap="round"
      stroke-linejoin="round"
      aria-label="awarenessRibbon"
    >
      <path
            d="M0 -21.6
               C 16 -21.6, 19.2 -2.4, 5.6000000000000005 4.8
               L 13.600000000000001 20.8
               L 3.2 22.400000000000002
               L 0 12.8
               L -3.2 22.400000000000002
               L -13.600000000000001 20.8
               L -5.6000000000000005 4.8
               C -19.2 -2.4, -16 -21.6, 0 -21.6 Z"
            fill="#ec489933"
            stroke="#ec4899"
            stroke-width="6"
            stroke-linejoin="round"
          />
          <path
            d="M-4 4 L 4 -4.8"
            fill="none"
            stroke="#ec4899"
            stroke-width="4"
            opacity="0.85"
            stroke-linecap="round"
          />
    </g>
    </g>
<text
      x="600"
      y="583.5"
      text-anchor="middle"
      font-family="Teko, Impact, Arial Black, sans-serif"
      font-size="42"
      font-weight="800"
      fill="#111827"
      letter-spacing="0.02em"
    >
      <tspan x="600" dy="0">AWARENESS</tspan><tspan x="600" dy="37">RECOVERY MATTERS</tspan>
    </text>
    </g>
  </g>
</svg>